<?xml version="1.0" encoding="utf-8"?>
<!-- Generator: Adobe Illustrator 24.0.3, SVG Export Plug-In . SVG Version: 6.00 Build 0)  -->
<svg version="1.1" id="Layer_1" xmlns="http://www.w3.org/2000/svg" xmlns:xlink="http://www.w3.org/1999/xlink" x="0px" y="0px"
	 viewBox="0 0 211.5 211.5" style="enable-background:new 0 0 211.5 211.5;" xml:space="preserve">
<style type="text/css">
	.st0{fill:#FF5252;}
</style>
<g id="Film_01">
</g>
<g id="New_Symbol_8">
</g>
<g>
	<g>
		<g>
			<polygon class="st0" points="87.8,42.4 82.5,35.9 81.4,44.2 73.6,47.3 81.2,50.8 81.7,59.2 87.4,53.1 95.5,55.2 91.5,47.8 
				96,40.8 			"/>
		</g>
		<g>
			<polygon class="st0" points="109.9,40.1 106.1,35.4 105.3,41.4 99.6,43.6 105.1,46.2 105.5,52.3 109.7,47.9 115.6,49.4 
				112.6,44.1 115.9,38.9 			"/>
		</g>
		<g>
			<polygon class="st0" points="65.4,52.9 61.5,48.2 60.8,54.2 55.1,56.5 60.6,59.1 61,65.2 65.1,60.7 71,62.2 68.1,56.9 71.4,51.8 
							"/>
		</g>
		<g>
			<path class="st0" d="M108.7,173.4L93.8,178l-0.8-2.5l14.8-4.6L108.7,173.4z"/>
			<path class="st0" d="M113,156.9c0,0.3-0.1,0.6-0.1,0.8l-0.2,3c0.6,0.1,0.9,0.3,1,0.5c0.1,0.1,0,0.4-0.3,0.8l5.8,18.7
				c0,0.3-0.1,0.6-0.5,0.9c-0.4,0.3-0.8,0.6-1.3,0.7c-0.1,0.1-0.2,0.1-0.4,0.2c-0.5,0.1-0.8,0.1-0.9-0.3c0-0.1-0.1-0.2-0.1-0.3
				c-0.2-0.9-0.6-2.2-1.1-3.9l-3.5-11.3c-0.4,1.3-0.8,2.5-1.3,3.5c-0.1,0.1-0.2,0.2-0.3,0.3s-0.2,0-0.2-0.2c0,0,0-0.1,0-0.3
				c0.5-3.9,0.3-8.6-0.8-14.1c-0.1-0.1,0-0.2,0.1-0.2c0.1,0,0.1,0,0.2,0c2.1-0.1,3.4-0.1,3.8,0c0.4,0.1,0.7,0.3,0.7,0.5
				c0.1,0.3,0.2,0.5,0.2,0.5S113.4,156.6,113,156.9z M117.3,154.9l1.7-0.5l0.8-1.6c0.1-0.2,0.2-0.4,0.3-0.4c0.2-0.1,0.5,0,0.8,0.1
				l2.4,0.9c0.3,0.1,0.4,0.2,0.5,0.4c0.1,0.3-0.1,0.6-0.6,1.1l0.5,1.7c0.1,0.3,0.2,0.8,0.4,1.5c0.2,0.7,0.5,1.3,0.7,1.8
				c0.4,0.9-0.2,1.6-1.9,2.1c-0.1,0-0.2,0.1-0.3,0.1c-0.5,0.1-0.8,0-0.8-0.3l-0.2-0.8l-2.7,0.8l1.7,5.4l1.4-0.4l0.8-2
				c0-0.4,0.1-0.6,0.3-0.6l0.1,0c0.3,0,0.8,0.2,1.6,0.7c0.8,0.4,1.3,0.8,1.4,1c0.1,0.2,0.1,0.3-0.1,0.4l-0.1,0l-5.3,1.6l1.2,3.9
				l1.8-0.6l0.7-2c0.1-0.4,0.2-0.6,0.4-0.6c0.1,0,0.1,0,0.1,0c0.3,0,0.9,0.2,1.7,0.7c0.8,0.4,1.3,0.8,1.5,1c0.1,0.2,0.1,0.3-0.1,0.4
				l-0.2,0l-5.7,1.8l2.1,6.8c0,0.6-0.6,1.1-1.7,1.5c-0.1,0.1-0.2,0.1-0.4,0.1c-0.5,0.1-0.8,0-0.9-0.3c0-0.1-0.1-0.1-0.1-0.3
				c-0.2-0.9-0.6-2.2-1.1-3.9l-6-19.3c-0.3-1-0.6-1.6-0.7-1.8c-0.1-0.1-0.2-0.2-0.2-0.3c0-0.1,0-0.2,0.1-0.2l0,0
				c0.3-0.1,0.9-0.1,1.7-0.1c0.9,0,1.3,0.1,1.3,0.1S116.7,154.7,117.3,154.9z M117.1,156.1l1.6,5.2l2.7-0.8l-1.7-5.6l-2,0.6
				c0,0.1,0,0.2,0,0.2S117.5,155.8,117.1,156.1z M131.6,152.2l0.6,1.8c0.1,0.3,0.2,0.8,0.4,1.5c0.2,0.7,0.5,1.3,0.7,1.8
				c0.4,0.9-0.2,1.6-1.9,2.2c-0.1,0-0.2,0.1-0.3,0.1c-0.4,0.1-0.7,0-0.8-0.3l-0.2-0.8l-4.1,1.3l-0.8-0.5c0.6-0.1,1.3-0.3,2.1-0.5
				l2.6-0.8l-1.8-5.9l-4,1.2l-0.8-0.5c0.4,0,1.3-0.3,2.7-0.7l1.4-0.4l0.8-1.5c0.1-0.3,0.2-0.4,0.4-0.5c0.2-0.1,0.4,0,0.7,0.1
				l2.8,0.9c0.2,0.1,0.4,0.2,0.4,0.3c0.1,0.3,0.1,0.4,0.1,0.4S132.2,151.6,131.6,152.2z M126.2,163.9l-0.9,0.3l-0.8-0.6
				c0.6-0.1,1.2-0.2,1.8-0.4l3.6-1.1l0.7-1.4c0.2-0.3,0.4-0.5,0.5-0.6l0.1,0c0.3,0,1.1,0.3,2.2,0.7s1.8,0.8,1.9,1l0,0.4
				c0,0.1-0.2,0.3-0.6,0.6l-0.4,0.5c-0.2,2.2-0.7,4.3-1.4,6.4c2.3,0.8,4.6,1.2,6.9,1.1c0.2,0,0.3,0.1,0.3,0.2c0.1,0.1,0,0.4-0.3,0.6
				c-1,0.8-1.5,1.9-1.4,3.4c0.1,0.3,0,0.5-0.2,0.6c-0.1,0.1-0.3,0-0.4,0c-2.4-0.2-4.5-1.1-6.3-2.8c-1.7,3.2-4,5.5-6.9,6.9
				c-0.2,0-0.4-0.1-0.4-0.2c0-0.1,0-0.2,0.1-0.4c2.6-2,4.4-4.8,5.3-8.4c-1.6-2.1-2.4-3.1-2.4-3.1S127,166.3,126.2,163.9z
				 M130.2,168.1c0.3-1.8,0.4-3.6,0.4-5.5l-3.8,1.2c0.8,1.9,1.2,2.8,1.2,2.8S128.7,167.1,130.2,168.1z"/>
			<path class="st0" d="M155.1,159.1l-14.8,4.6l-0.8-2.5l14.8-4.6L155.1,159.1z"/>
		</g>
		<g>
			<path class="st0" d="M23,84c7.3-27.8,28.7-51.2,58.3-59.7c29.7-8.6,60.3-0.1,81.3,19.7l2.8-0.8C143.9,22,111.8,12.8,80.6,21.8
				c-31.1,9-53.3,33.7-60.5,63L23,84z"/>
		</g>
		<g>
			<path class="st0" d="M15,86.3c6.9-32,30.7-59.3,64.3-69c33.7-9.7,68.5,0.8,91.3,24.4l4.9-1.4c-23.9-26-61.3-37.8-97.5-27.3
				c-36.2,10.4-61.5,40.2-68,74.8L15,86.3z"/>
		</g>
		<g>
			<path class="st0" d="M192.8,131.2c-8.5,29.1-31.3,53.4-62.7,62.4c-31.4,9.1-63.7,0.6-86.5-19.7l-5.1,1.5
				c24,22.6,58.9,32.4,92.8,22.6c33.9-9.8,58.2-36.5,66.5-68.3L192.8,131.2z"/>
		</g>
		<g>
			<path class="st0" d="M184.4,133.6c-8.8,24.8-29,45.2-56.3,53.1c-27.3,7.9-55.4,1.3-76.1-15.1l-3,0.9c21.4,17.8,51,25,79.7,16.7
				c28.7-8.3,49.8-30,58.6-56.4L184.4,133.6z"/>
		</g>
	</g>
</g>
<g>
	<path class="st0" d="M43.4,95.7c-0.1-0.3-0.2-0.8-0.7-0.6c-0.2,0.1-0.3,0.2-0.3,0.3c0,0,0.1,0,0.1,0C42.8,95.5,43.1,95.6,43.4,95.7
		z"/>
	<path class="st0" d="M133.9,113.6c-0.3,0.4-0.7,0.8-1.1,1.3l4.1,13.2l26.6-8.2l-4.3-14L133.9,113.6z"/>
	<path class="st0" d="M69,119.9c-2,3.7-4.2,7.2-6.6,10.5l2.1-0.6l13.7-4.2l-2.4-7.8L69,119.9z"/>
	<path class="st0" d="M205.8,114.8l-19.1-65c-0.5-1.7-1.4-3.2-2.4-4.1c-0.1,0-0.1,0-0.2,0c-0.3,0-0.5,0.3-0.6,0.1
		c-0.1-0.1-0.1-0.5,0-0.8c-1-0.7-2-1-3-0.8l-9.7,2.8c0.4,0.3,0.8,0.6,1.2,0.5c-0.8,0.2-1.6,0.1-2.4,0.1c-0.5,0.7-1,1.2-1.6,1.8
		c0.5,0.2,1.2,0.3,1.4,0.7c0.2,0.7-0.5,0.4-1.1,0.3c-0.3,0-0.6-0.1-0.9-0.3c-0.5,0.5-1.1,0.7-1.6,1.1c0.9,0.1,1.8,0.2,2.7,0.3
		c0.3-0.4,0.7-0.6,0.8-0.2c0,0.1,0,0.2,0,0.3c0.3,0,0.6,0.1,0.9,0.1c0.3,0,0.4,0.3,0.6,0.6c0.2-0.2,0.5-0.4,0.7-0.5
		c-0.1,0.4-0.4,0.4-0.5,0.8h0c-0.8,1.5-1.9,2.2-2.8,3.5c-0.3,0.2-0.5,0.2-0.6-0.1c-0.1-0.4-0.1-0.9,0.2-1.2c0.8-0.6,1.6-1.3,2.3-1.9
		c-0.4-0.1-0.9-0.2-1.3-0.3c-0.1,0.1-0.1,0.2-0.2,0.2c-0.4,0.4-0.9,1-1.1,0.3c-0.1-0.2,0.1-0.5,0.3-0.8c-0.7-0.1-1.4-0.4-2.1-1
		c-0.6,0.4-1.2,0.9-1.9,1.1c1.4-0.7,1.2-4.6,3.4-3.7c0.1,0,0.3-0.2,0.3-0.3c0.1-0.3,0.2-0.3,0.4-0.4l-16.1,4.8
		c0,0.3-0.4,0.2-0.6,0.3c-0.5,0.1-0.9,0.3-1.4,0.3l-2.5,0.7c-0.3,0.4-0.7,0.5-1.1,0.3l-23.9,7c-0.1,0.2-0.2,0.3-0.2,0.4
		c0,1.7-0.5,2-1.5,1.8c-0.3-0.2-0.8,0.4-0.9-0.4c-0.1-0.5,0.4-0.8,0.7-1c0.1-0.1,0.2-0.3,0.3-0.4l-13.9,4.1l-2.6,0.8
		c-0.9,1.7-1.8,3.4-2.7,5c0.5,0.3,1,0.6,1.5,0.8c0.2-0.2,0.5-0.5,0.6-0.8c0.1-0.3,0.3-0.2,0.3,0.1c0.1,0.3-0.1,0.8-0.3,1.1
		c0.1,0,0.1,0.1,0.1,0.1c0.8,0.7,2,1.4,2,2.1c0,0.6-1-0.2-1.9-0.7c-0.3-0.1-0.5-0.3-0.8-0.4c-0.3,0.5-0.6,1-0.9,1.4
		c0.8,0.2,1.6,0.4,2.4,2.1c-0.8,0-2-1-3-1.4c-0.4-0.2-0.8-0.6-0.9-0.9c-0.1-0.3,0-0.5,0.2-0.2c0.3,0.2,0.7,0.3,0.9,0.4
		c0-0.8,0.1-1.3,0.4-1.7c-0.4-0.3-0.9-0.5-1.3-0.8c0,0.1-0.1,0.1-0.1,0.2c-0.5,0.8-0.9,2-1.3,1.5c-0.3-0.5,0-1.4,0.3-2.2
		c-0.9-0.6-1.9-1.1-2.8-1.6c-0.3,0-0.7,0-0.9-0.5c-0.1-0.2-0.1-0.7,0.1-0.7c0.4-0.1,0.8-0.1,1.5,0.3c0.8,0.4,1.7,1,2.5,1.5
		c0.8-1.2,1.5-2.6,2.2-4l-10.6,3.1c1,0.4,2.1,0.9,3.1,1.4c-0.7-0.2-2.2-0.6-3.9-1.2l-16.5,4.8c0.3,0.4,0.7,0.8,0.4,1
		c-0.3,0.3-1,0.6-1.9-0.1c-0.2-0.1-0.3-0.2-0.5-0.3l-1.1,0.3c0,0.1-0.1,0-0.1,0.2c0,0.3-0.3,0.2-0.6,0.3c-0.2-0.1-0.3-0.1-0.5-0.1
		l-32.8,9.6c0.4,0.2,0.8,0.6,1.2,0.5c-0.8,0.2-1.6,0.2-2.5,0.1c-0.5,0.6-1.1,1.2-1.6,1.8c0.5,0.1,1.2,0.3,1.4,0.7
		c0.2,0.7-0.5,0.4-1.1,0.3c-0.3-0.1-0.6-0.1-0.9-0.3c-0.5,0.5-1.1,0.7-1.6,1c0.9,0.1,1.8,0.2,2.7,0.3c0.3-0.4,0.7-0.6,0.8-0.1
		c0,0.1,0,0.2,0,0.3c0.3,0,0.6,0,0.9,0.1c0.3,0.1,0.4,0.3,0.6,0.6c0.2-0.2,0.5-0.4,0.7-0.6c-0.1,0.4-0.3,0.5-0.5,0.8h0
		c-0.7,1.5-2,2.2-2.9,3.4c-0.2,0.2-0.5,0.2-0.5-0.1c-0.1-0.4-0.1-0.9,0.2-1.1c0.8-0.7,1.5-1.3,2.3-1.9c-0.5-0.1-0.9-0.2-1.3-0.3
		c-0.1,0-0.1,0.2-0.2,0.2c-0.4,0.4-0.9,1-1.1,0.3c-0.1-0.3,0.1-0.5,0.3-0.8c-0.7-0.1-1.4-0.4-2.1-1.1c-0.6,0.4-1.2,0.9-1.8,1.1
		c1.4-0.7,1.2-4.6,3.4-3.7c0.1-0.1,0.2-0.2,0.3-0.4c0.1-0.3,0.2-0.3,0.4-0.4l-16.1,4.7c0,0.3-0.3,0.2-0.5,0.3
		c-0.5,0.1-1,0.3-1.4,0.3l-2.5,0.7c-0.3,0.5-0.7,0.5-1.1,0.4L8,95c-2.3,0.7-3.3,4.2-2.3,7.9l19.1,65c1.1,3.7,3.9,6.2,6.2,5.5
		l37.9-11.1c0.1-0.2,0.2-0.3,0.3-0.5c0.1,0.3,0,0.3,0,0.5l25.7-7.6c0-0.1-0.2-0.3-0.1-0.3c0.1,0,0.2,0.2,0.2,0.2l10.5-3.1
		c-1.1-0.3-1.6-1.6-2.2-2.5c-1.1-1.3,0.1-0.7,0.5-0.6c1.2,0,2.6,1.7,3.9,2.4l48-14.1c0.2-0.8,0.5-1.6,0.7-2.5c0-0.5,0.2-0.8,0.4-0.8
		c0.2-0.1,0.2,0.5,0.1,0.7c0.1,0.8-0.1,1.6-0.4,2.3l15-4.3c0-0.2,0-0.4,0-0.6c0-0.8,0.6-1.3,1-1.5c0.4-0.4,0.6,0.1,0.7,0.7
		c0.3,0.3,0.3,0.5,0.3,0.8l30.1-8.8C205.9,122.2,206.9,118.6,205.8,114.8z M10.1,103.1c-0.6,0.2-0.6,0.3-0.5,0.9
		c0.4,2,0.3,2-1.4,2.8C8,107,7.8,107,7.3,107.3c0.7-1.3,0.2-1.7-0.4-2.5c0.7-0.1,1.3-0.2,0.9-1c-0.3-0.7-0.1-1.1,0.5-1.3
		c0.6-0.5,1.3-0.9,2-0.3C10.6,102.4,10.9,103.1,10.1,103.1z M11.6,108.6c-0.3,0.1-0.6,0.4-0.7-0.1c-0.1-0.4,0-0.7,0.4-1
		c0.3-0.1,0.7-0.1,0.9,0.3C12.4,108.3,11.9,108.4,11.6,108.6z M12.6,100.9c-0.1,0.4-0.4,0.6-0.6,0.7c-0.2,0.1-0.4,0.2-0.6,0
		c-0.3-0.3-0.1-0.5,0-0.7c0.9-0.9,0.4-1.3-0.8-1.6c0.8-0.8,1.3-1,1.8-0.2c0.2,0.3,0.2,0.5,0.4,0.7c0.3,0.3,1-0.3,0.9,0.4
		C13.9,101.3,13,100.7,12.6,100.9z M177.3,52.1c-1.1,0.2-2,1-3.1,1.6C175,51.7,176.5,51,177.3,52.1z M168.9,63.4
		c0.8,0.2,1.5,0.8,1.2,1.6c0.2,0.6,0.4,1.1-0.2,1c-0.4-0.1-1.2-0.1-1.6-0.7c-0.4-0.6-0.7-1.2-1.5-0.9c-0.2,0.1-0.7,0-0.8-0.5
		c0-0.2,0.2-0.4,0.4-0.3C167.2,63.5,168,63.2,168.9,63.4z M167.3,60.9c-0.5,0.2-1.2,0-2-0.2c0.3-0.7,0.9-0.8,1.7-0.3
		C167.3,60.4,167.5,60.9,167.3,60.9z M166.8,56.9c0.5,0.6,0.2,0.7-0.2,0.8c-0.2,0.1-0.4,0.4-0.4,0.6c0.2,0.8-0.4,0.4-0.6,0.5
		c-0.6,0-0.6-0.5-0.8-0.7c-0.3-0.4-0.4-1.1-1-0.9c-0.6,0.1-0.3,0.7-0.2,1.1c0.4,0.7,0.3,1.2-0.1,1.4c-0.6,0.4-1.5-0.3-2.1-0.6
		c-0.8-0.2-0.3-0.6-0.3-1.1c0.1-0.1-0.1-0.5-0.2-0.8c-0.5-1,0.1-1.4,0.9-1.3c1.3,0.1,2.4-0.1,3.6-0.1
		C166.1,55.7,166.4,56.3,166.8,56.9z M163.9,54.4c-1.2,0-2.4-0.2-3.5,0.3C160.5,53.3,162.1,53.2,163.9,54.4z M145.6,60.1
		c0.2,0.3,0.2,0.5,0.4,0.7c0.2,0.3,1-0.3,0.9,0.3c0.1,1-0.8,0.4-1.2,0.6c-0.1,0.4-0.3,0.6-0.6,0.8c-0.2,0.1-0.5,0.2-0.6,0
		c-0.3-0.3-0.1-0.5,0-0.7c0.9-0.9,0.4-1.2-0.8-1.6C144.6,59.5,145.1,59.3,145.6,60.1z M144.8,69.4c-0.3,0.1-0.6,0.4-0.7-0.1
		c-0.1-0.5,0-0.8,0.4-1c0.3-0.1,0.7-0.1,0.9,0.3C145.5,69.2,145,69.4,144.8,69.4z M140.9,64.8c-0.3-0.7-0.1-1.1,0.5-1.3
		c0.6-0.5,1.3-0.8,2-0.3c0.4,0.2,0.6,0.9-0.2,1c-0.6,0.1-0.7,0.3-0.5,0.9c0.4,2,0.3,2.1-1.4,2.9c-0.1,0.1-0.3,0.1-0.9,0.4
		c0.8-1.3,0.2-1.7-0.4-2.5C140.7,65.7,141.3,65.5,140.9,64.8z M133.4,58.7c-0.1,1.6-2.9,3.7-4.8,4C129.7,59.8,131.9,60.1,133.4,58.7
		z M123.5,65.3c3.7-1.3,7.1-1.7,10.2-1c3.1,0.7,5.2,2.5,6.3,5.4c0.9,3.4,1.4,5.1,1.4,5.1s-1.9,0.7-5.6,2.2c-3.3,0.8-5.4-0.8-6.4-4.7
		c0-0.2-0.1-0.6-0.2-1c-0.8-2.5-2.5-4-5.2-4.6c-0.5-0.3-0.8-0.5-0.8-0.7C123,65.8,123.1,65.5,123.5,65.3z M118.4,77.5
		c1.3,1.7,0.3,1.9,1.4,3.3c0.2,0.3,0.5,0.8,0.2,0.7c-0.3,0-0.6-0.4-1-0.9C118.1,79.1,118.1,78.1,118.4,77.5z M102.1,83.8
		c0.6-0.3,1-0.8,1.6-1.4c0.2,0.1,0.6-0.2,0.6,0.6c-0.9,1.2-1.1,3.9-2.2,4.6c-0.3,0.3-1,1.5-0.7-0.2
		C101.4,86.2,100.9,84.6,102.1,83.8z M100.2,90.7c-0.4,1.6-1,3-1.3,4.6c0,0.5-0.2,0.8-0.4,0.8c-0.2,0.1-0.2-0.4-0.1-0.8
		C98.2,93.5,99.1,91.1,100.2,90.7z M95.1,92.8L95.1,92.8c0.1,0.7,0.2,0.9,0.2,0.9s-0.6,0.2-1.9,0.6L93,94.5c-2,6.1-5,11.6-8.8,16.5
		c-0.3,0.2-0.6,0.3-0.7,0.4c-0.4,0.1-0.6,0-0.7-0.4l-0.1-0.3c2-6.9,2.5-13.4,1.5-19.6c-0.2-0.5-0.2-0.8,0.1-0.9c0.1,0,0.4,0,0.7,0
		c4.8,0.8,7.7,1.4,8.6,1.8C94.5,92.3,95,92.6,95.1,92.8z M81.9,76c0.4,0,1,0,1.2,0.5c0.4,0.7-0.4,0.5-0.6,0.8
		c-0.7,0.7-1.3,0.7-2.2-0.7c-0.2-0.3-0.9-0.6-1.6-1C79.7,75,80.9,75.8,81.9,76z M75.2,80.7c-1.7,0.8-5.2,0.5-6.1-0.7
		C71.1,80.3,72.8,78.9,75.2,80.7z M59.6,88.6c0-0.3,0-0.5,0-0.8c0-0.9,0.5-1.1,1.6-0.8c-0.8,0.9-1.1,1.5,0.2,1.8
		c0.2,0.1,0.5,0.2,0.4,0.6c-0.1,0.2-0.3,0.3-0.5,0.4c-0.3,0-0.5-0.1-0.8-0.3c-0.5,0-1,0.9-1.4,0C58.7,88.9,59.6,88.9,59.6,88.6z
		 M50.4,84.2c0.1-0.6,0.6-0.7,1-0.9c1.9-1.1,4-1,6-1.9c0.5-0.4,1-0.1,1.1,0.2c0.3,0.8-0.5,0.6-0.7,0.8c-0.5,0.6-1.3,0.2-1.9,0.9
		c-0.3,0.5-0.8,1-1.5,0.1c-0.4-0.5-1-0.3-1.2,0.2c-0.5,0.9-1.4,1-2.2,1.2c-0.2,0.1-0.5,0.3-0.6,0.1C50.3,84.8,50.3,84.4,50.4,84.2z
		 M50.3,99.2c5.6-2.2,10.6-4.7,15.1-7.4c-0.3-0.2-0.5-0.7-0.8-1.5c-0.2-0.6-0.4-0.7-0.9-0.5c-0.7,0.3-0.8-0.3-0.7-0.7
		c0.3-0.8,1.1-0.8,1.9-0.8c0.6-0.2,1,0.1,1.1,0.8c0.1,0.9,0.7,0.7,1.3,0.4c0,0.4-0.1,0.8-0.1,1.1c4.8-3,8.9-6.3,12.5-9.9
		c0.2-0.2,0.4-0.4,0.6-0.4c0.2-0.1,0.4-0.1,0.6,0c2.5,0.6,5,1.4,7.5,2.3c0.8,0.3,1.5,0.6,2.1,0.8c0,0,0-0.1,0-0.1
		c0.1,0.1,0.2,0.1,0.2,0.2c1.1,0.5,1.8,1,2.1,1.4c0.2,0.1,0.1,0.2-0.2,0.4c-0.2,0.2-0.6,0.3-1.1,0.5c0,0.1,0,0.3,0,0.4
		c0,0.6-0.1,1.1-0.3,1.3c-0.2,0.2-0.2-0.3-0.2-0.7c0-0.4,0-0.7,0-0.9h0l-2,0.5l-0.3,0.1l-17.7,7.1c-3.4,1.4-7.2,2.8-11.3,4.1
		c-3.3,1-6.4,1.9-9.1,2.5c-0.5,0-0.8-0.1-0.9-0.3C49.8,99.8,50,99.6,50.3,99.2z M76.1,108.7c-2.3,0.6-3.9-0.3-4.6-2.7
		c-0.2-0.6-0.3-1.2-0.4-2c-0.1-0.8-0.2-1.4-0.4-2c-0.6-1.9-0.9-2.9-0.9-2.9s-0.9-0.3-2.6-1.1c-0.3-0.3-0.5-0.5-0.5-0.7
		c-0.1-0.3,0-0.5,0.1-0.6c6.7-0.9,10.8,0.9,12.5,5.4C80.1,105.3,79,107.5,76.1,108.7z M54.5,104.5c0,0-0.8-0.3-2.4-1
		c-0.4-0.5-0.3-0.8,0.1-1l0.4,0c2.6-0.3,5,0,7.2,0.9c2.2,0.9,3.7,2.3,4.6,4.3c0.8,3.1-0.4,5.2-3.5,6.5c-1.9,0.3-3.2-0.7-4-3.2
		c-0.2-0.6-0.3-1-0.3-1.4c-0.7-1.8-1.2-3.1-1.5-3.9c-0.2,0.4-0.5,0.6-0.8,0.5c-0.7-0.6-0.8,0.2-1.2,0.9c-0.5-1.4,0.4-1.7,1-2.1
		c0.2-0.2,0.4-0.4,0.6-0.4C54.5,104.5,54.5,104.5,54.5,104.5z M44.2,91.2c-1.1,0.2-2,1.1-3.1,1.6C41.9,90.9,43.4,90.1,44.2,91.2z
		 M30.7,93.5c-1.2,0.1-2.4-0.2-3.5,0.3C27.4,92.4,29,92.3,30.7,93.5z M27,111.7c-0.2,0.3-0.7,0.2-1.1-0.1c-0.2-0.1-0.3-0.2-0.2-0.6
		c0.1-0.5,0.4-0.6,1-0.4c0.7,0.1,1.6-0.2,1.9,1.2C27.8,111.5,27.3,110.8,27,111.7z M30.7,96.2c-0.7,0.1-0.3,0.7-0.2,1.1
		c0.4,0.7,0.3,1.2-0.1,1.3c-0.6,0.4-1.5-0.3-2.1-0.5c-0.8-0.3-0.3-0.7-0.3-1.2c0.1-0.1-0.1-0.6-0.2-0.8c-0.5-1,0.1-1.3,0.9-1.3
		c1.3,0.1,2.4-0.1,3.6-0.2c0.8,0.1,1,0.7,1.5,1.2c0,0,0,0,0,0c2.4-0.6,4.6-0.8,6.6-0.7c0.1-0.2,0.2-0.3,0.4-0.5
		c1-0.6,2.1-1.1,3.2-1.9c0.7-0.5,1.4-0.5,1.5,0.6c0,0.3,0.1,0.8,0.2,0.9c0.2,0.4,0.9,0.5,0.4,1.1c-0.2,0.3-0.5,0.8-0.8,1.1
		c1.1,0.8,1.9,1.8,2.4,3.2c0.3,1.6,0.2,2.9-0.4,4s-1.4,1.9-2.5,2.2c-0.8,0.2-1.6,0.2-2.3-0.1c-0.3,0.2-0.4,0.1-0.5-0.3
		c-0.1,0-0.1-0.1-0.2-0.1c-1-0.6-1.8-1.8-2.3-3.5c-0.9-2.7-1.4-4-1.4-4s-1.3-0.2-3.8-0.8c-0.2-0.2-0.3-0.4-0.5-0.6c0,0-0.1,0-0.2,0
		c-0.2,0.1-0.4,0.5-0.3,0.6c0.1,0.7-0.4,0.4-0.7,0.5c-0.6,0-0.6-0.4-0.8-0.7C31.4,96.8,31.3,96,30.7,96.2z M33.3,102.6
		c0.8-0.1,1.6-0.3,2.5-0.1c0.8,0.2,1.5,0.8,1.2,1.6c0.2,0.6,0.4,1-0.2,0.9c-0.5,0-1.2-0.1-1.6-0.7c-0.4-0.7-0.7-1.2-1.5-0.9
		c-0.2,0.1-0.7-0.1-0.8-0.5C32.8,102.8,33.1,102.6,33.3,102.6z M32.2,99.8c0.3-0.7,0.9-0.7,1.7-0.3c0.2,0,0.5,0.5,0.3,0.5
		C33.7,100.3,33,100,32.2,99.8z M59.5,148.9c-0.9,3.8-1.5,7.2-1.7,10.4c-0.1,0.4-0.4,0.5-0.7,0.2l-8.8-7.5c-0.1-0.1,0-0.3,0.1-0.6
		c0.7-1.8,1.1-3,1.2-3.6c0.1-0.6-0.1-1.5-0.4-2.5L40.6,118l-6.9,2.1l-2.1-1.3c1.1-0.1,3.3-0.7,6.6-1.6l2-0.6l1.5-3.6
		c0.1-0.6,0.4-0.9,0.8-1c0.4-0.1,1,0,1.6,0.4l5.1,2.6c0.8,0.1,1.3,0.3,1.4,0.8c0.2,0.6,0.3,0.9,0.3,0.9s-0.7,0.6-2,1.9l7,22.6
		l6.8-8.4c0.5-0.4,0.7-0.4,0.8-0.1c0.1,0.2,0.1,0.3,0.1,0.4C61.8,139.8,60.3,145.1,59.5,148.9z M103.4,146.3
		c-1.7,0.7-2.6,0.6-2.7-0.2l-1-3.2l-3,0.9c0,0.1,0.1,0.1,0.1,0.1c1.1,1.2,2.4,2.1,3.6,3.2c-1.1,0.2-3.1-1.3-4-3
		c-0.1-0.1-0.1-0.1-0.2-0.2l-16.9,5.2c-0.6,1.9-1,3.1-1.3,3.7s-0.8,1-1.3,1.2c-0.5,0.2-1.8,0.2-3.7,0c-2.2-0.4-3.5-0.8-3.9-1.1
		c-0.5-0.3-0.5-0.7-0.1-1.2c0.4-0.7,0.5-1.2,0.6-1.6s-0.1-1.1-0.4-2.1l-2.2-7.1c-0.8-2.4-1.4-3.8-1.6-4.3c-0.3-0.3-0.4-0.6-0.5-0.9
		c-0.1-0.4,0-0.6,0.2-0.7l0.1,0c1.3-0.4,3.2-0.5,5.8-0.6c2.6-0.1,4.1,0.2,4.6,0.8c0.3,0.3-0.1,1.1-1.3,2.4l3.2,10.5l7.1-2.2l-5.9-19
		l-20.9,6.5l-2.1-1.2c1.8-0.3,3.6-0.8,5.4-1.4c1.1-5.8,1.5-11.4,1.2-16.7c0-0.4,0.2-0.6,0.5-0.7c0.1,0,0.3-0.1,0.4,0
		c4.5,0.2,7.2,0.4,8,0.7c0.9,0.3,1.4,0.6,1.4,0.9l0,0.1c0.1,0.3-0.3,0.7-1.2,1.1l-0.6,0.2c-0.3,0.3-0.6,0.8-0.9,1.5l19.6-6.1l1.6-5
		c0.2-0.8,0.5-1.2,1-1.4l0.3-0.1c0.7,0,2,0.6,3.9,1.7s3,1.9,3.4,2.4c0.3,0.5,0.2,0.9-0.2,1c0,0.1-0.1,0.1-0.1,0.1
		c-0.1,0-0.1,0-0.1,0s0,0-0.1,0l-14.4,4.4c0.3,0.3,0,0.9-1,1.8l2,6.3l9.3-2.9l1.7-5c0.4-0.8,0.7-1.3,1-1.4l0.1,0
		c0.8,0,2.3,0.5,4.5,1.5c2.2,1,3.5,1.7,3.9,2.2c0.2,0.5,0.2,0.8-0.2,0.9l-0.3,0l-19.6,6.1l5.9,19l7.2-2.2l-3-9.8
		c-0.8-2.4-1.4-3.8-1.6-4.3c-0.3-0.4-0.4-0.7-0.5-0.9c-0.1-0.4,0-0.6,0.2-0.7l0.1,0c1.3-0.3,3.2-0.5,5.9-0.6c2.7,0,4.2,0.2,4.7,0.8
		c0.4,0.2-0.1,1-1.4,2.3l1.6,5.2c0.1,0.4,0.4,1.5,1,3.3s1.2,3.3,1.9,4.6C109.1,143.5,107.5,145.1,103.4,146.3z M111,87.4
		c-0.1,0-0.3,0-0.4-0.1l-6.6,2l-1.9-1.6c2.1-0.4,4.3-0.9,6.7-1.6c-0.7-0.6-1.5-1.2-2.1-1.5c-0.4-0.7,0.1-0.7,0.2-0.8
		c0.8,0.2,1.5,0.3,2.1,0.3c0.9,0,1.4,0.7,1.8,1.4c0,0,0.1,0,0.1,0l45.5-14.1l2-5.9c0.3-1.4,0.9-2.1,1.7-2.1c1,0,2.6,0.5,5,1.8
		c2.4,1.2,3.8,2.2,4.3,3.1c0.2,0.5,0.2,0.8-0.2,0.9l-0.3,0l-8.1,2.5c0.3,0.2,0.5,0.4,0.6,1c-0.7-0.4-1.2-1-1.5-0.2
		c-0.2,0.4-0.7,0.2-1.1-0.1c-0.1,0-0.1-0.1-0.2-0.1L111.7,87C112.6,88,111.4,87.5,111,87.4z M118.3,91.9c0.2,0.2,0.5,0.6,0.3,0.7
		c-0.1,0.2-0.4,0-0.8-0.4c-1.1-1.2-2.4-2.1-3.6-3.2C115.4,88.7,117.4,90.2,118.3,91.9z M115.1,94.6c2.5-0.6,5.4-1.4,8.8-2.4
		l26.8-8.3l2.1-4.7c0.4-1,1-1.6,1.9-1.8c0.8,0,2.2,0.5,4.2,1.5c2,1,3.1,1.8,3.5,2.3c0.2,0.5,0,0.8-0.4,1l-0.4,0L117.1,96L115.1,94.6
		z M118.4,105.4c2.5-0.6,5.4-1.4,8.8-2.4l27.5-8.5l1.9-4.8c0.5-1.3,1.1-2.1,1.6-2.3c0.4-0.1,1.3,0.1,2.5,0.6
		c1.3,0.5,2.5,1.2,3.8,1.9s2,1.3,2.2,1.7c0.2,0.5,0.2,0.8-0.2,0.9l-0.3,0l-45.9,14.2L118.4,105.4z M160.9,131
		c-0.4,0.5-0.7,0.5-1,0.2c-0.2-0.2-0.2-0.4-0.1-0.6c0.2-0.5,0.5-0.9,0.9-0.7c0.7,0.6,0.8-0.3,1.1-0.9
		C162.3,130.3,161.4,130.6,160.9,131z M168.6,125.2c-0.2,0.1-0.5,0.2-1,0.4c-1.5,0.5-2.4,0.2-2.5-0.7l-1.1-3.5l-26.6,8.2l0.8,2.7
		c0,1.8-1.6,3.3-4.8,4.4c-0.3,0.1-0.7,0.3-1.2,0.5c-1.5,0.5-2.4,0.2-2.7-0.6c0-0.1-0.1-0.3-0.1-0.8c-0.5-2.3-1.4-5.5-2.6-9.5
		l-2.7-8.6c-0.8-2.4-1.4-3.8-1.6-4.3c-0.3-0.3-0.4-0.6-0.5-0.8c-0.1-0.3,0-0.5,0.3-0.6l0.1,0c1-0.2,2.6-0.3,5-0.3
		c2.4,0,4.2,0.2,5.5,0.6l25.2-7.8l0.9-2.6c0.2-0.6,0.6-0.9,1.1-1.1c0.6-0.2,1.3-0.2,1.9,0l7.6,2c0.9,0.1,1.4,0.3,1.5,0.8
		c0.2,0.6-0.3,1.5-1.5,2.8l1.7,5.6c0,0.1,0,0.1,0,0.3c0,0.1,0.1,0.3,0.1,0.6l0.7,1.9c0.8,2.1,1.4,3.8,1.8,4.9
		C175.1,121.8,173.3,123.6,168.6,125.2z M177.1,63.6c-0.8,0.2-0.8,0.9-0.8,1.6c0,0.8-0.6,1.2-1,1.5c-0.4,0.4-0.6-0.1-0.6-0.7
		c-0.6-0.6-0.4-1.4,0.1-2c0.6-0.6,1.4-0.8,2.2-1.2c0.1-0.2,0.4-0.1,0.5,0C177.7,63.2,177.4,63.6,177.1,63.6z M174.8,60.5
		c0.4-0.8,0.9-1,1.6-0.6c-0.5,0.5-1,1.1-1.6,1.2C174.7,61.1,174.6,60.6,174.8,60.5z M178.9,56.3c-0.4,0.5-0.8,1.6-1.5,1.6
		c-0.4,0.1-0.8-0.3-0.9-1.1c-0.2-0.3-0.2-1-0.8-0.8c-0.6,0.2-0.3,0.8-0.4,1.3c0,0.2,0.2,0.7-0.3,1c-0.3,0.1-0.6,0.7-0.8-0.1
		c-0.1-0.2-0.4-0.4-0.6-0.3c-0.4,0.1-0.7,0.2-0.6-0.5c0.1-0.7,0-1.3,0.6-1.8c1.1-0.6,2.1-1.1,3.1-1.9c0.7-0.5,1.4-0.5,1.5,0.6
		c0,0.3,0.1,0.8,0.3,0.8C178.8,55.6,179.5,55.7,178.9,56.3z M187,65.9c0.3-0.5,0.6-0.6,1-0.2c0.2,0.2,0.2,0.4,0.1,0.6
		c-0.2,0.5-0.6,0.9-0.9,0.7c-0.7-0.6-0.8,0.2-1.1,0.9C185.6,66.5,186.4,66.3,187,65.9z M188.2,125.3c-0.7,0-1.6,0.2-1.9-1.2
		c0.7,0.4,1.2,1,1.5,0.1c0.2-0.4,0.7-0.2,1.1,0.1c0.2,0.1,0.3,0.2,0.3,0.5C189,125.4,188.7,125.5,188.2,125.3z"/>
</g>
<g>
	<path class="st0" d="M130.6,171.7l1.1-1.4l3-0.2l1.9,0.6l2,1.8l-1.1,1.3l0.6,0.7c0,0,0.1-0.1-1.3-0.2c-1.4-0.1,0.3,0.9,0.3,0.9
		S132.5,174.2,130.6,171.7z"/>
</g>
</svg>
