<svg id="i-3-2" xmlns="http://www.w3.org/2000/svg" width="162.03" height="161.986" viewBox="0 0 162.03 161.986">
  <path id="Path_1364" data-name="Path 1364" d="M158.931,6.579c-6.9-6.9-19.91-6.576-36.622.925C106.331,14.675,88.561,27.6,72.262,43.9c-27.147,27.138-43.083,56.3-42.182,74.36L5.337,143.014A12.069,12.069,0,1,0,22.4,160.082l23.14-23.14a2.48,2.48,0,0,0,.71-1.586c.81.074,1.627.116,2.478.116,18.15,0,46.47-15.8,72.881-42.224C156.378,58.485,172.769,20.416,158.931,6.579ZM18.894,156.571A7.109,7.109,0,0,1,8.84,146.517l22.3-22.3a15.287,15.287,0,0,0,10.013,10.1Zm99.218-66.826C86.4,121.452,49.931,138.537,38.456,127.062s5.618-47.949,37.316-79.655c15.886-15.886,33.136-28.444,48.568-35.375,8.063-3.618,15.143-5.444,20.744-5.444,4.469,0,8,1.157,10.335,3.495C166.9,21.565,149.81,58.038,118.112,89.745Z" transform="translate(-1.805 -1.631)" fill="#333"/>
  <path id="Path_1365" data-name="Path 1365" d="M120.089,56.693a9.539,9.539,0,0,0-13.479,0L70.053,93.25a9.539,9.539,0,0,0,0,13.479L81.4,118.077a9.549,9.549,0,0,0,13.479,0L131.437,81.52a9.539,9.539,0,0,0,0-13.479Zm7.749,21.228L91.281,114.478a4.447,4.447,0,0,1-6.281,0L73.652,103.13a4.446,4.446,0,0,1,0-6.281l36.557-36.557a4.447,4.447,0,0,1,6.281,0L127.838,71.64A4.462,4.462,0,0,1,127.838,77.921Z" transform="translate(-14.184 -11.517)" fill="#333"/>
  <path id="Path_1366" data-name="Path 1366" d="M157.657,31.027a2.546,2.546,0,0,0-3.6,0L143.007,42.078a2.541,2.541,0,0,0,0,3.6l6.417,6.417a2.541,2.541,0,0,0,3.6,0l11.051-11.051a2.541,2.541,0,0,0,0-3.6ZM151.223,46.7l-2.818-2.818,7.444-7.444,2.818,2.818Z" transform="translate(-27.487 -5.964)" fill="#333"/>
  <path id="Path_1367" data-name="Path 1367" d="M58.4,51.486a2.545,2.545,0,0,0,3.6-3.6L40.106,26a2.545,2.545,0,0,0-3.6,3.6Z" transform="translate(-7.858 -5.204)" fill="#333"/>
  <path id="Path_1368" data-name="Path 1368" d="M78.566,39.546A2.543,2.543,0,0,0,81.113,37V12.826a2.546,2.546,0,0,0-5.093,0V37A2.548,2.548,0,0,0,78.566,39.546Z" transform="translate(-14.762 -2.939)" fill="#333"/>
  <path id="Path_1369" data-name="Path 1369" d="M23.686,70.953H47.86a2.546,2.546,0,1,0,0-5.093H23.686a2.546,2.546,0,1,0,0,5.093Z" transform="translate(-4.729 -12.845)" fill="#333"/>
</svg>
