<svg id="i-3-4" xmlns="http://www.w3.org/2000/svg" width="143.512" height="137.152" viewBox="0 0 143.512 137.152">
  <path id="Path_1359" data-name="Path 1359" d="M126.505,17.059H105.768V12.44a6.547,6.547,0,0,0-6.517-6.57H56.3a6.547,6.547,0,0,0-6.517,6.57v4.619H29.042A7.721,7.721,0,0,0,21.36,24.8v95.563a7.721,7.721,0,0,0,7.682,7.745h2.1v12.734a2.164,2.164,0,0,0,2.158,2.176H45.852a2.164,2.164,0,0,0,2.158-2.176V128.1h59.161v12.749a2.164,2.164,0,0,0,2.158,2.176H121.88a2.164,2.164,0,0,0,2.158-2.176V128.1h2.467a7.721,7.721,0,0,0,7.682-7.745V24.8A7.715,7.715,0,0,0,126.505,17.059Zm-72.41-4.627a2.21,2.21,0,0,1,2.2-2.219H99.244a2.21,2.21,0,0,1,2.2,2.219v5.925a2.229,2.229,0,0,0-.187.877,2.11,2.11,0,0,0,.187.877v5.925a2.21,2.21,0,0,1-2.2,2.219H56.3a2.21,2.21,0,0,1-2.2-2.219ZM29.042,21.41H49.779V26.03A6.547,6.547,0,0,0,56.3,32.6H99.244a6.547,6.547,0,0,0,6.517-6.57V21.41H126.5a3.384,3.384,0,0,1,3.366,3.394V78.242H91.641L104.948,64.8a2.188,2.188,0,0,0,0-3.075,2.145,2.145,0,0,0-3.05,0L85.549,78.242h-34.5L64.359,64.8a2.181,2.181,0,0,0-.007-3.075,2.139,2.139,0,0,0-3.05.007L44.96,78.25H25.683V24.8A3.368,3.368,0,0,1,29.042,21.41ZM43.694,138.671H35.458V128.1h8.236Zm76.028,0h-8.236V128.1h8.236Zm6.783-14.924H29.042a3.384,3.384,0,0,1-3.366-3.394V82.586h104.2v37.767A3.38,3.38,0,0,1,126.505,123.747Z" transform="translate(-6.212 -5.87)" fill="#333"/>
  <path id="Path_1360" data-name="Path 1360" d="M51.8,127.27a10.707,10.707,0,1,0,10.684,10.707A10.706,10.706,0,0,0,51.8,127.27Zm0,16.92a6.221,6.221,0,1,1,6.2-6.221A6.216,6.216,0,0,1,51.8,144.19Z" transform="translate(-12.251 -39.722)" fill="#333"/>
  <path id="Path_1361" data-name="Path 1361" d="M143.134,127.27a10.707,10.707,0,1,0,10.684,10.707A10.706,10.706,0,0,0,143.134,127.27Zm0,16.92a6.221,6.221,0,1,1,6.2-6.221A6.216,6.216,0,0,1,143.134,144.19Z" transform="translate(-37.697 -39.722)" fill="#333"/>
  <path id="Path_1362" data-name="Path 1362" d="M11.014,82H3.343A2.24,2.24,0,0,0,1.1,84.243V99.63a2.24,2.24,0,0,0,2.243,2.243h7.671a2.24,2.24,0,0,0,2.243-2.243V84.243A2.24,2.24,0,0,0,11.014,82ZM8.771,97.387H5.586v-10.9H8.771Z" transform="translate(-1.1 -27.073)" fill="#333"/>
  <path id="Path_1363" data-name="Path 1363" d="M192.654,82h-7.671a2.24,2.24,0,0,0-2.243,2.243V99.63a2.24,2.24,0,0,0,2.243,2.243h7.671A2.24,2.24,0,0,0,194.9,99.63V84.243A2.24,2.24,0,0,0,192.654,82Zm-2.243,15.387h-3.185v-10.9h3.185Z" transform="translate(-51.385 -27.073)" fill="#333"/>
</svg>
