<?xml version="1.0" encoding="utf-8"?>
<!-- Generator: Adobe Illustrator 24.0.3, SVG Export Plug-In . SVG Version: 6.00 Build 0)  -->
<svg version="1.1" id="i-close_people" xmlns="http://www.w3.org/2000/svg" xmlns:xlink="http://www.w3.org/1999/xlink" x="0px"
	 y="0px" viewBox="0 0 39.6 39.6" style="enable-background:new 0 0 39.6 39.6;" xml:space="preserve">
<style type="text/css">
	.st0{fill:#000333;}
	.st1{fill:#FF0000;}
</style>
<path id="Path_1318" class="st0" d="M32.8,9.8c-1.3-1.5-3.1-2.4-5.1-2.5c-1.9,0.1-3.7,0.9-5,2.4c-1.4,1.6-2.3,3.6-2.6,5.7
	c-0.3-2.1-1.2-4-2.6-5.6c-1.3-1.6-3.2-2.5-5.3-2.6c-2,0.1-3.9,1-5.2,2.5c-2.1,2.5-3.2,5.7-2.8,9c0.2,2.7,2.6,4.3,5,4.6
	c-0.6,1.2-1.5,2.2-2.6,2.9c-2.5,1.9-1.9,6-1.9,6.2c0,0.2,0.2,0.3,0.4,0.3c0,0,0,0,0.1,0c0.2,0,0.4-0.2,0.3-0.5c0,0-0.5-3.8,1.6-5.4
	c0.4-0.3,0.9-0.7,1.3-1c0.8,1.2,2.1,2,3.5,2c0.1,0,0.2,0,0.3,0c1.4-0.1,2.6-0.8,3.3-1.9c0.4,0.4,0.9,0.7,1.4,1
	c0.2,0.1,0.4,0.2,0.5,0.4c1.9,1.3,1,8.7,0.5,11.4c0,0.2,0.1,0.4,0.3,0.5c0,0,0,0,0.1,0c0.2,0,0.4-0.1,0.4-0.3
	c0.2-1.1,1.8-10.4-0.8-12.2c-0.2-0.1-0.4-0.2-0.5-0.4c-0.5-0.4-1.1-0.8-1.6-1.2c0-0.1-0.1-0.2-0.2-0.2c-0.4-0.4-0.7-0.9-0.9-1.5
	c2.9-0.1,4.9-1.6,5.4-4.1c0.3,2.2,1.2,4.3,2.4,6.1l-0.1,0C19,26.9,21,37.4,21.2,38.6c0,0.2,0.2,0.3,0.4,0.3c0,0,0.1,0,0.1,0
	c0.2,0,0.4-0.3,0.3-0.5c-0.6-3-1.7-11.2,0.8-12.2c0.4-0.2,0.8-0.4,1.2-0.7c0.8,1,2.1,1.6,3.4,1.6c0.1,0,0.2,0,0.4,0
	c1.3-0.1,2.5-0.8,3.2-1.9c0.4,0.3,0.8,0.6,1.1,0.9c0.2,0.2,0.5,0.3,0.7,0.5c1.6,1.3,2.1,3.4,1.5,5.2c-0.1,0.2,0,0.4,0.2,0.5
	c0,0,0.1,0,0.1,0c0.2,0,0.3-0.1,0.4-0.3c0,0,1.4-3.8-1.7-6.2c-0.1-0.1-0.2-0.2-0.3-0.3c1.4-2.2,2.3-4.7,2.5-7.3
	C35.8,15.3,34.9,12.2,32.8,9.8z M12.4,22.6c-0.4,0-0.9,0-1.3-0.2c-2.1-0.7-3.2-3.3-3.5-5.7c2.6-0.1,5-1.5,6.5-3.6
	c1,0.6,1.7,1.6,1.9,2.7c0.3,1.3,0.2,2.6-0.3,3.8C15.3,21.2,14,22.4,12.4,22.6z M12.2,27.1c-1.3,0-2.5-0.7-3.2-1.8
	c0.5-0.6,0.9-1.3,1.1-2c0-0.1,0.1-0.1,0.1-0.2c0,0,0-0.1,0-0.1c0,0,0,0,0,0c0.6,0.3,1.3,0.5,1.9,0.5c0.1,0,0.2,0,0.3,0
	c0.5,0,1-0.2,1.4-0.4c0.1,0.9,0.6,1.7,1.2,2.4C14.4,26.4,13.4,27.1,12.2,27.1z M19.5,18.7c-0.3,3.4-3.3,3.9-4.8,3.9c0,0,0,0,0,0
	c0.9-0.7,1.6-1.6,1.9-2.7c0.5-1.4,0.6-2.8,0.3-4.3c-0.4-1.5-1.3-2.7-2.7-3.4c-0.2-0.1-0.4,0-0.5,0.2C12.2,14.6,9.8,16,7.2,16
	c-0.1,0-0.2,0-0.3,0.1c-0.1,0.1-0.1,0.2-0.1,0.3c0.1,2.3,1,4.4,2.7,6c0,0,0,0.1,0,0.1c-1.8-0.2-4.2-1.4-4.4-3.9
	c-0.3-3,0.6-6,2.6-8.4c1.1-1.4,2.8-2.2,4.6-2.3c1.8,0.1,3.5,0.9,4.7,2.3C18.9,12.7,19.8,15.7,19.5,18.7L19.5,18.7z M27.7,26.3
	c-1.2,0.1-2.4-0.4-3.1-1.4c0.6-0.7,1.1-1.6,1.2-2.6c0.2,0.1,0.4,0.2,0.6,0.2c0.4,0.1,0.8,0.2,1.2,0.2c0.1,0,0.2,0,0.3,0
	c0.5,0,0.9-0.2,1.3-0.3c0.1,0.8,0.5,1.6,1.1,2.2C29.9,25.7,28.9,26.3,27.7,26.3L27.7,26.3z M27.9,22c-0.4,0-0.8,0-1.2-0.1
	c-2-0.6-3.1-3.2-3.3-5.4c2.5-0.1,4.8-1.4,6.2-3.5c0.9,0.6,1.6,1.5,1.8,2.5c0.3,1.2,0.2,2.5-0.3,3.6C30.7,20.7,29.4,21.8,27.9,22
	L27.9,22z M34.7,18.3c-0.2,2.5-1,4.9-2.4,7c-0.4-0.3-0.7-0.5-1-0.8c0-0.1-0.1-0.1-0.1-0.1c-0.6-0.6-1-1.4-1.1-2.3
	c0.8-0.7,1.5-1.5,1.9-2.5c0.5-1.3,0.6-2.7,0.3-4.1c-0.3-1.4-1.3-2.6-2.6-3.3c-0.2-0.1-0.4,0-0.5,0.2c-1.4,2.1-3.7,3.4-6.1,3.4h0
	c-0.2,0-0.4,0.2-0.4,0.4c0,0,0,0,0,0c0.1,2.2,1,4.3,2.6,5.8c-0.1,1.3-0.8,2.4-1.8,3.2c0,0,0,0,0,0c-1.3-2-2.2-4.3-2.4-6.7
	c-0.3-2.9,0.6-5.8,2.5-8c1.1-1.3,2.7-2.1,4.4-2.2c1.7,0.1,3.4,0.9,4.5,2.2C34.1,12.6,35,15.4,34.7,18.3L34.7,18.3z"/>
<path id="Path_1319" class="st1" d="M19.8,0C8.9,0,0,8.9,0,19.8s8.9,19.8,19.8,19.8s19.8-8.9,19.8-19.8C39.6,8.9,30.7,0,19.8,0z
	 M1.2,19.8C1.2,9.5,9.5,1.2,19.8,1.2c4.8,0,9.3,1.8,12.8,5.1L6.3,32.6C3,29.1,1.2,24.6,1.2,19.8z M19.8,38.4c-4.7,0-9.2-1.8-12.6-5
	L33.4,7.2c7,7.5,6.5,19.3-1,26.3C29,36.6,24.5,38.4,19.8,38.4z"/>
</svg>
