<svg id="i-3-1" xmlns="http://www.w3.org/2000/svg" width="125.337" height="126.456" viewBox="0 0 125.337 126.456">
  <path id="Path_1379" data-name="Path 1379" d="M133.334,33.862a2.19,2.19,0,0,0-2.193,2.193v90.332a10.553,10.553,0,0,1-10.54,10.54H31.585a17.217,17.217,0,0,1-12.368-5.277,16.441,16.441,0,0,1-1.184-21.483,21.387,21.387,0,0,1,16.878-8.333h76.867a2.19,2.19,0,0,0,2.193-2.193v-82.6a2.19,2.19,0,0,0-2.193-2.193H34.984A24.821,24.821,0,0,0,10.19,39.644v83.388a2.152,2.152,0,0,0,.439,1.308,20.9,20.9,0,0,0,5.431,10.336,21.625,21.625,0,0,0,15.533,6.63H120.6a14.943,14.943,0,0,0,14.926-14.926V36.055A2.195,2.195,0,0,0,133.334,33.862Zm-118.759,5.8A20.432,20.432,0,0,1,34.984,19.25H109.6V97.463H34.926a25.815,25.815,0,0,0-20.35,10.029Z" transform="translate(-10.19 -14.85)" fill="#333"/>
  <path id="Path_1380" data-name="Path 1380" d="M119.482,154H36.23a2.23,2.23,0,0,0,0,4.46h83.252a2.23,2.23,0,0,0,0-4.46Z" transform="translate(-16.302 -52.706)" fill="#333"/>
</svg>
