<?xml version="1.0" encoding="utf-8"?>
<!-- Generator: Adobe Illustrator 24.0.3, SVG Export Plug-In . SVG Version: 6.00 Build 0)  -->
<svg version="1.1" id="i-rest" xmlns="http://www.w3.org/2000/svg" xmlns:xlink="http://www.w3.org/1999/xlink" x="0px" y="0px"
	 viewBox="0 0 36.1 39.4" style="enable-background:new 0 0 36.1 39.4;" xml:space="preserve">
<style type="text/css">
	.st0{fill:#000333;}
</style>
<path id="Path_1326" class="st0" d="M23.2,25c-0.5-0.6-1.3-1-2.2-1h-0.3l0.2-2.4c0.1-0.8-0.2-1.6-0.8-2.2c-0.6-0.6-1.4-0.9-2.2-1H6
	c-1.7,0-3,1.3-3,3c0,0.1,0,0.1,0,0.2L3.2,24H2.9c0,0-0.1,0-0.1,0h0c-0.1,0-0.2,0-0.3,0h0c0,0-0.1,0-0.1,0c-1.5,0.3-2.5,1.7-2.2,3.2
	l1.4,8.5c0,0.2,0.2,0.3,0.4,0.3h2l-1,2.7c-0.1,0.2,0,0.4,0.2,0.5c0,0,0,0,0,0c0.2,0.1,0.4,0,0.5-0.2c0,0,0,0,0,0l1.1-3h14.2l0.9,3
	c0.1,0.2,0.2,0.3,0.4,0.3c0,0,0.1,0,0.1,0c0.2-0.1,0.3-0.3,0.3-0.5l-0.8-2.8h1.8c0.2,0,0.4-0.1,0.4-0.3l1.8-8.4
	C23.9,26.5,23.7,25.7,23.2,25z M4.4,19.8c0.4-0.4,1-0.7,1.6-0.7h11.9c1.2,0,2.2,1,2.2,2.2c0,0,0,0.1,0,0.1l-0.5,8
	c-4.7-2.5-10.4-2.6-15.2,0l-0.5-8C3.8,20.9,4,20.3,4.4,19.8z M19.5,30.4L19.5,30.4c-0.1,1.2-1,2.1-2.2,2.1H6.6c-1.1,0-2.1-0.9-2.2-2
	v0C9.1,27.7,14.8,27.7,19.5,30.4z M23,27.2l-1.7,8.1H2.2l-1.4-8.2C0.7,26,1.4,25,2.4,24.8c0,0,0,0,0.1,0h0.8l0.4,5.6
	c0.1,1.6,1.4,2.8,3,2.8h10.7c1.6,0,2.9-1.2,3-2.8l0.4-5.7h0.4c1.1,0,2,0.9,2,2C23,26.9,23,27,23,27.2L23,27.2z"/>
<path id="Path_1327" class="st0" d="M35.7,38.6h-5.2c0,0,0,0,0,0l3.9-35.1l0.7,0.1c0,0,0.1,0,0.1,0c0.2,0,0.4-0.2,0.4-0.4
	c0-0.2-0.1-0.3-0.3-0.4l-0.8-0.2l0.2-1.8c0-0.2-0.1-0.4-0.3-0.5S34,0.6,33.9,0.8c0,0,0,0,0,0l-0.2,1.7L20.8,0
	c-0.2,0-0.4,0.1-0.5,0.3c0,0.2,0.1,0.4,0.3,0.5l2.5,0.5c0,0,0,0,0,0.1v3.3c0,0,0,0,0,0.1H16c-0.2,0-0.4,0.2-0.4,0.4v7.1
	c0,0.2,0.2,0.4,0.4,0.4H31c0.2,0,0.4-0.2,0.4-0.4V5.1c0-0.2-0.2-0.4-0.4-0.4h-7.1c0,0,0,0,0-0.1V1.4l9.7,1.9l-4,35.1
	c0,0,0,0.1,0,0.1H24c-0.2,0-0.4,0.2-0.4,0.4c0,0.2,0.2,0.4,0.4,0.4h11.8c0.2,0,0.4-0.2,0.4-0.4C36.1,38.8,36,38.6,35.7,38.6
	L35.7,38.6L35.7,38.6z M30.6,11.8H16.4V5.5h14.2L30.6,11.8z"/>
</svg>
