<?xml version="1.0" encoding="utf-8"?>
<!-- Generator: Adobe Illustrator 24.0.3, SVG Export Plug-In . SVG Version: 6.00 Build 0)  -->
<svg version="1.1" id="Layer_1" xmlns="http://www.w3.org/2000/svg" xmlns:xlink="http://www.w3.org/1999/xlink" x="0px" y="0px"
	 viewBox="0 0 34.9 39.6" style="enable-background:new 0 0 34.9 39.6;" xml:space="preserve">
<style type="text/css">
	.st0{fill:#000333;}
</style>
<path id="i-sneeze" class="st0" d="M34.8,15.7c-0.4-1.2-1.7-1.9-3-1.5c0,0,0,0,0,0h0c-0.5-3.7-2-7.2-4.5-10
	c-2.1-2.5-5.3-4.1-8.6-4.2C13.3,0,8.1,4.8,6.3,11.5c-0.3-0.5-0.7-1-1.2-1.4c-1.5-1-3.5-0.6-4.5,0.9c-1,1.5-0.6,3.5,0.9,4.5
	c0,0,0,0,0.1,0c1.3,0.6,2.7,0.9,4.1,0.9c0,0.8,0,1.5,0.1,2.3c-0.3,0-0.7,0-1,0c-1.2,0.3-2,1.6-1.7,2.9c0.3,1.2,1.6,2,2.9,1.7
	c0,0,0,0,0.1,0c0.2,0,0.3-0.1,0.5-0.2c0.7,2.9,2,5.7,3.7,8.2c0,0.1,0.1,0.1,0.2,0.2c-0.2,0.1-0.3,0.2-0.5,0.3
	c-2.8,1.6-2.8,7-2.8,7.3c0,0.2,0.2,0.4,0.4,0.4l0,0c0.2,0,0.4-0.2,0.4-0.4c0-0.1,0-5.2,2.4-6.6c0.8-0.5,1.6-1,2.2-1.6
	c1.2,2,3.3,3.3,5.7,3.4c0.2,0,0.3,0,0.5,0c1.9-0.1,3.6-0.9,4.9-2.3c2.3,2.3,5.4,5.4,6,6c0,0.5,0,0.9-0.1,1.4c0,0.2,0.1,0.4,0.3,0.5
	c0,0,0,0,0.1,0c0.2,0,0.4-0.2,0.4-0.4c0.1-0.6,0.1-1.2,0.1-1.7c0-0.2-0.1-0.3-0.3-0.4c-1.1-1.2-8.1-8-8.4-8.4
	c-0.4-0.4-0.9-0.7-1.4-0.9c-0.7-0.1-1.4-0.5-1.9-1c-0.8-0.9-3.7-3.7-3.8-3.8c-0.2-0.1-0.2-0.4,0-0.6c0,0,0,0,0,0
	c0.1-0.1,0.3-0.2,0.5-0.1c1,1,2.2,2.2,2.3,2.3c0.1,0.1,0.2,0.1,0.3,0.1c0.2,0,0.4-0.2,0.4-0.4c0-0.1,0-0.2-0.1-0.3
	c0,0-1.2-1.1-2.1-2.1c0,0,0-0.1-0.1-0.1c-0.1-0.1-0.1-0.1-0.2-0.1l-1.1-1.1c-0.1-0.2-0.1-0.4,0-0.6c0-0.1,0.1-0.1,0.2-0.1
	c0.2,0,0.3,0.1,0.4,0.2c0,0,0,0,0.1,0.1l3.3,3.3c0.2,0.2,0.4,0.2,0.6,0c0.2-0.2,0.2-0.4,0-0.6c0,0,0,0,0,0l-4-3.9
	c-0.2-0.1-0.2-0.4,0-0.6c0,0,0,0,0,0c0.1-0.1,0.2-0.1,0.2-0.1c0.3,0,0.7,0.5,0.9,0.7l0,0c0.2,0.2,2.8,2.8,3.3,3.3
	c0.2,0.2,0.4,0.1,0.6,0c0.1-0.2,0.1-0.4,0-0.5c-1.2-1.2-3.1-3.1-3.3-3.3c-0.1-0.1-0.1-0.2-0.1-0.3c0-0.1,0-0.2,0.1-0.2
	c0.2-0.1,0.5-0.1,0.6,0.1L21,22l0.1,0.1c0.2,0.3,0.6,0.5,1,0.4c0.3-0.1,0.5-0.4,0.5-0.8v-1.5c0-0.2,0.1-0.5,0.4-0.5c0,0,0.1,0,0.1,0
	c0.2,0,0.3,0.1,0.4,0.3c0,0,0,0,0,0.1v4.5c-0.1,0.9,0.2,1.8,0.9,2.4c0.3,0.2,6.9,6,7.2,6.3c0.2,0.1,0.4,0.1,0.6-0.1
	c0.1-0.2,0.1-0.4,0-0.6l-3.3-2.9c1.7-3.3,2.8-6.9,3.2-10.6c0-0.1,0-0.1,0-0.2c0.2,0,0.4,0,0.6,0c0.3,0,0.5,0,0.8-0.1
	c0.6-0.2,1.1-0.6,1.4-1.2C35,16.9,35,16.3,34.8,15.7z M0.9,13.3c-0.3-1.3,0.6-2.6,1.9-2.9c0.2,0,0.3,0,0.5,0c0.5,0,0.9,0.1,1.3,0.4
	c0.9,0.6,2.3,3.4,3.1,4.9c-0.5,0-1.1-0.1-1.7-0.1h0l0,0c-1.4,0-2.8-0.3-4.1-0.8C1.4,14.4,1,13.9,0.9,13.3z M5.6,22.4
	c-0.8,0.2-1.7-0.2-1.9-1.1s0.2-1.7,1.1-1.9l0,0c0.1,0,0.2,0,0.4,0c1.1,0.1,2.2,0.3,3.3,0.6C7.6,21,6.7,21.8,5.6,22.4L5.6,22.4z
	 M17.5,27.5c0.6,0.7,1.5,1.2,2.4,1.3c0.4,0.1,0.7,0.4,1,0.6l1.9,1.9c-2.2,2.5-6.1,2.7-8.6,0.5c-0.5-0.5-0.9-1-1.3-1.6
	c1.3-1.3,2.1-3,2.3-4.8c0.1,0,0.1,0,0.2-0.1C16.2,26.1,17.1,27,17.5,27.5z M23.1,18.9c-0.7,0-1.3,0.5-1.3,1.2c0,0,0,0.1,0,0.1v1.4
	c0,0-0.1-0.1-0.1-0.1l-3.8-3.8c0,0,0,0,0,0c-0.5-0.4-1.2-0.5-1.7-0.1c-0.1,0.1-0.3,0.3-0.3,0.4c-0.2-0.2-0.5-0.3-0.8-0.3
	c-0.3,0-0.6,0.1-0.8,0.3c-0.4,0.4-0.5,1-0.2,1.4c-0.1,0.1-0.3,0.2-0.4,0.3c-0.4,0.5-0.4,1.2,0,1.7l0.4,0.4c-0.1,0.1-0.2,0.1-0.3,0.2
	c-0.2,0.2-0.4,0.5-0.4,0.8c-1.5-2.2-2.4-4.8-2.7-7.5c1.7-0.1,7.7-0.8,11.1-6.2c1.8,1,3.1,2.8,3.6,4.8c0.5,2.2,0.3,4.4-0.5,6.5
	c-0.2,0.5-0.4,1-0.7,1.4V20C24.3,19.4,23.8,18.9,23.1,18.9C23.1,18.9,23.1,18.9,23.1,18.9L23.1,18.9z M31.1,18.9
	c-0.3,3.5-1.4,7-3,10.2c-1.7-1.4-3.1-2.7-3.2-2.8c-0.4-0.3-0.6-0.7-0.7-1.2c0,0,0-0.1,0-0.1v-1.6c0,0,0.1-0.1,0.1-0.1
	c0.6-0.8,1-1.6,1.4-2.5c0.9-2.2,1.1-4.6,0.5-7c-0.6-2.4-2.2-4.4-4.4-5.5c-0.2-0.1-0.4,0-0.5,0.2c-3.6,6-10.5,6.1-11,6.1h0
	c-0.1,0-0.2,0-0.3,0.1c-0.1,0.1-0.1,0.2-0.1,0.3c0.2,3.2,1.5,7.7,4.5,10c-0.2,2.5-1.6,4.7-3.7,6c0-0.1,0-0.2-0.1-0.2
	C9,28.2,7.7,25.4,7,22.5c0.9-0.7,1.7-1.5,2.5-2.4c0.1-0.1,0.1-0.2,0.1-0.4c0-0.1-0.1-0.2-0.3-0.3c-0.9-0.3-1.9-0.5-2.9-0.7
	c-0.1-0.8-0.1-1.6-0.1-2.3c1,0.1,1.7,0.1,1.9,0.1h0c0.2,0,0.4-0.2,0.4-0.4c0-0.1,0-0.1,0-0.2c-0.1-0.3-0.9-2-1.8-3.6
	c0,0,0.1-0.1,0.1-0.1C8.6,5.6,13.5,0.8,18.7,0.8c3.1,0.1,6,1.6,8,3.9c2.4,2.8,4,6.2,4.3,9.9c-1,0.9-1.9,1.8-2.8,2.8
	c-0.1,0.2-0.1,0.4,0.1,0.6c0,0,0.1,0.1,0.2,0.1c0.2,0.1,1.4,0.3,2.6,0.5C31.1,18.7,31.1,18.8,31.1,18.9L31.1,18.9z M33.9,17.1
	c-0.2,0.4-0.5,0.6-0.9,0.8c-1.2,0.1-2.5-0.1-3.7-0.4c0.8-1,1.7-1.8,2.7-2.5c0.8-0.3,1.7,0.2,2,1C34.2,16.3,34.1,16.8,33.9,17.1
	L33.9,17.1z"/>
</svg>
