<?xml version="1.0" encoding="utf-8"?>
<!-- Generator: Adobe Illustrator 24.0.3, SVG Export Plug-In . SVG Version: 6.00 Build 0)  -->
<svg version="1.1" id="i-disinfection" xmlns="http://www.w3.org/2000/svg" xmlns:xlink="http://www.w3.org/1999/xlink" x="0px"
	 y="0px" viewBox="0 0 33.3 37.6" style="enable-background:new 0 0 33.3 37.6;" xml:space="preserve">
<style type="text/css">
	.st0{fill:#000333;}
</style>
<path id="Path_1320" class="st0" d="M33.3,8.4c0-1.3-0.8-2.6-2-3.1c1-1.6,0.6-3.7-1-4.7s-3.7-0.6-4.7,1C25.2,2.1,25,2.7,25,3.4
	c0,0.3,0,0.5,0.1,0.8l-3.9,2.1C21,6.4,21,6.7,21.1,6.9s0.4,0.3,0.5,0.2c0,0,0,0,0,0L25.4,5c0,0.1,0.1,0.1,0.1,0.2
	c0.1,0.2,0.3,0.3,0.5,0.2s0.3-0.3,0.2-0.5c0,0,0,0,0,0c-0.7-1.2-0.3-2.8,0.9-3.6s2.8-0.3,3.6,0.9c0.6,0.9,0.5,2.1-0.2,3
	c-0.2,0-0.4,0.2-0.4,0.4c0,0.2,0.2,0.4,0.4,0.4c1.4,0.3,2.3,1.7,2,3.1c-0.1,0.7-0.6,1.3-1.2,1.7c-0.2-0.1-0.4-0.1-0.6,0.1
	c-0.1,0.2-0.1,0.4,0,0.5c0,0,0,0.1,0,0.1c0,0.1,0.1,0.2,0.2,0.2c0.8,1.2,0.5,2.8-0.8,3.6s-2.8,0.5-3.6-0.8c-0.5-0.8-0.6-1.9,0-2.8
	c0.1-0.2,0.1-0.4-0.1-0.6c-0.2-0.1-0.4-0.1-0.6,0.1c-0.1,0.2-0.3,0.5-0.3,0.7l-4.4-2.3c-0.2-0.1-0.4,0-0.5,0.2
	c-0.1,0.2,0,0.4,0.2,0.5l4.7,2.4c-0.1,1.9,1.4,3.5,3.2,3.6s3.5-1.4,3.6-3.2c0-0.6-0.1-1.3-0.4-1.8C32.7,10.6,33.3,9.5,33.3,8.4z"/>
<path id="Path_1321" class="st0" d="M17.2,6.5h-2.6V5.9c0-0.2-0.2-0.4-0.4-0.4h-8c-0.1,0-0.2,0-0.2,0.1L0.7,9.1
	C0.6,9.1,0.5,9.3,0.5,9.4v2.5c0,0.1,0.1,0.3,0.2,0.4l1.9,1C2.2,13.6,2,14.1,2,14.6v0.7c0,0.2,0,0.3,0.1,0.5c-1.2,0.9-2,2.2-2.1,3.7
	v14.8c0,0,0,0,0,0.1c0.2,1.9,1.8,3.3,3.7,3.3h10c0,0,3.2,0,3.2-3.7v-2.5c0-0.4,0.4-4.3-2.7-6.1c-0.2-0.1-0.3-0.2-0.5-0.3l0,0
	c-2.3-1.4-2.3-2-2.3-2.6c0-0.1,0-0.3,0-0.5c0.1-1.5,0.4-5.4-1.6-6.4c0-0.1,0-0.2,0-0.3v-0.7c0-0.5-0.2-0.9-0.6-1.2L9.5,13
	c1.3,1.4,2.7,2.7,4.3,3.8c0.3,0.2,0.6,0.3,1,0.3c0.5,0,0.9-0.2,1.2-0.6c0.3-0.5,0.3-1.2-0.7-1.9c-1.2-0.7-2-1.8-2.5-3h1.5
	c0.2,0,0.4-0.2,0.4-0.4v-0.6h2.6c0.2,0,0.4-0.2,0.4-0.4V6.9C17.6,6.7,17.4,6.5,17.2,6.5C17.2,6.5,17.2,6.5,17.2,6.5z M13.7,26
	c2.4,1.4,2.4,4.5,2.3,5.2c0,0,0,0.1,0,0.1V34c0,2.7-2.1,2.8-2.3,2.8h-10c-2.3,0-2.8-2.3-2.9-2.6v-7.4c0.1,0,0.1-0.1,0.1-0.1
	c1.1-1,2.6-1.5,4.2-1.4c1,0.1,2,0.5,2.8,1c0.7,0.5,1.6,0.7,2.5,0.8c1.1,0,2.2-0.5,3.1-1.2C13.6,26,13.6,26,13.7,26z M9.4,16.3
	c1.5,0.7,1.2,4.3,1.1,5.6c0,0.2,0,0.4,0,0.5c0,0.9,0.2,1.7,2.2,3c-0.7,0.5-1.5,0.8-2.3,0.8C9.7,26.2,9,26,8.4,25.6
	c-1-0.6-2-0.9-3.2-1.1c-1.6-0.2-3.1,0.3-4.4,1.2v-6.3c0.1-1.2,0.7-2.3,1.7-3c0.3,0.3,0.7,0.4,1,0.4h4.7C8.7,16.8,9.1,16.7,9.4,16.3
	L9.4,16.3z M2.8,15.3v-0.7c0-0.4,0.3-0.7,0.7-0.7h4.7c0.4,0,0.7,0.3,0.7,0.7v0.7c0,0.1,0,0.1,0,0.2c-0.1,0.1-0.2,0.2-0.2,0.3
	c0,0,0,0.1,0,0.1C8.6,16,8.5,16,8.3,16H3.6c-0.2,0-0.4-0.1-0.5-0.2c0-0.1,0-0.2-0.1-0.2c0-0.1-0.1-0.1-0.2-0.2
	C2.8,15.4,2.8,15.3,2.8,15.3L2.8,15.3z M14.7,15.3c0.4,0.3,0.6,0.6,0.5,0.8s-0.6,0.3-1,0c-1.6-1.1-3-2.4-4.2-3.8l0.5-0.7h1.4
	C12.3,13.1,13.3,14.4,14.7,15.3L14.7,15.3z M13.8,10.8h-3.6c-0.1,0-0.3,0.1-0.3,0.2L8.4,13c-0.1,0-0.1,0-0.2,0H3.8l-2.5-1.3v-2
	l5-3.3h7.5L13.8,10.8z M16.8,9.8h-2.2V7.3h2.2L16.8,9.8z"/>
<path id="Path_1322" class="st0" d="M7.8,31c0,1.1,0.9,1.9,1.9,1.9c1.1,0,1.9-0.9,1.9-1.9c0-1.1-0.9-1.9-1.9-1.9
	C8.6,29,7.8,29.9,7.8,31z M10.8,31c0,0.6-0.5,1.1-1.1,1.1S8.6,31.6,8.6,31s0.5-1.1,1.1-1.1S10.8,30.4,10.8,31
	C10.8,31,10.8,31,10.8,31z"/>
<path id="Path_1323" class="st0" d="M25.4,8.6c0.2,0,0.4-0.2,0.4-0.4c0-0.2-0.2-0.4-0.4-0.4h-3.3c-0.2,0-0.4,0.2-0.4,0.4
	c0,0.2,0.2,0.4,0.4,0.4H25.4z"/>
<path id="Path_1324" class="st0" d="M23.9,17.5c-1.6,0-2.9,1.3-2.9,2.9c0,1.6,1.3,2.9,2.9,2.9c1.6,0,2.9-1.3,2.9-2.9l0,0
	C26.9,18.8,25.6,17.5,23.9,17.5z M23.9,22.5c-1.2,0-2.1-0.9-2.1-2.1s0.9-2.1,2.1-2.1c1.2,0,2.1,0.9,2.1,2.1S25.1,22.5,23.9,22.5
	L23.9,22.5z"/>
<path id="Path_1325" class="st0" d="M30.5,17.3c-0.9,0-1.7,0.7-1.7,1.7c0,0.9,0.7,1.7,1.7,1.7c0.9,0,1.7-0.7,1.7-1.7
	C32.1,18,31.4,17.3,30.5,17.3z M30.5,19.8c-0.5,0-0.8-0.4-0.8-0.8s0.4-0.8,0.8-0.8s0.8,0.4,0.8,0.8C31.3,19.4,30.9,19.8,30.5,19.8
	C30.5,19.8,30.5,19.8,30.5,19.8L30.5,19.8z"/>
</svg>
