<?xml version="1.0" encoding="utf-8"?>
<!-- Generator: Adobe Illustrator 24.0.3, SVG Export Plug-In . SVG Version: 6.00 Build 0)  -->
<svg version="1.1" id="touch_face" xmlns="http://www.w3.org/2000/svg" xmlns:xlink="http://www.w3.org/1999/xlink" x="0px" y="0px"
	 viewBox="0 0 39.6 39.6" style="enable-background:new 0 0 39.6 39.6;" xml:space="preserve">
<style type="text/css">
	.st0{fill:#000333;}
	.st1{fill:#FF0000;}
</style>
<path id="Path_1328" class="st0" d="M32.8,34c-0.1-0.1-2.2-2.2-3.6-3.6c1.5-2.9,2.5-6.1,2.8-9.4c0.6-4.8-0.9-9.6-4.1-13.2
	c-1.9-2.3-4.7-3.7-7.8-3.8c-2.9,0.1-5.7,1.5-7.6,3.7C9.3,11.3,7.8,16.1,8.3,21c0.4,3.9,1.7,7.7,3.9,11c0,0,0.1,0.1,0.1,0.1
	c-0.1,0.1-0.3,0.2-0.4,0.2c-1,0.7-1.7,1.8-2,3c-0.1,0.2,0.1,0.4,0.3,0.5c0,0,0.1,0,0.1,0c0.2,0,0.3-0.1,0.4-0.3
	c0.2-1,0.8-1.9,1.6-2.5c0.8-0.5,1.5-1,2.2-1.6c1.1,1.8,3,3,5.2,3.1c0.1,0,0.3,0,0.4,0c1.7-0.1,3.2-0.9,4.3-2.1
	c0.9,0.9,3.1,3,4.3,4.2c0.2,0.2,0.4,0.1,0.6,0c0.1-0.2,0.1-0.4,0-0.5c-1.6-1.6-4.7-4.6-4.8-4.7c-0.4-0.4-0.8-0.6-1.3-0.8
	c-0.7-0.1-1.3-0.4-1.7-0.9c-0.7-0.8-3.2-3.2-3.4-3.4c-0.1-0.1-0.1-0.3,0-0.4c0,0,0,0,0,0c0.1-0.1,0.2-0.1,0.4,0l2.1,2l0.6-0.6
	c0,0-1-1-1.9-1.9c0,0,0-0.1-0.1-0.1c0,0-0.1-0.1-0.2-0.1c-0.5-0.5-0.9-0.9-1-0.9c-0.1-0.1-0.1-0.3,0-0.4c0,0,0.1-0.1,0.1-0.1
	c0.1,0,0.3,0.1,0.3,0.2c0,0,0,0,0.1,0.1l3,2.9c0.2,0.2,0.4,0.1,0.6,0c0.1-0.2,0.1-0.4,0-0.5l-3.6-3.5c-0.1-0.1-0.1-0.3,0-0.4
	c0,0,0,0,0,0c0.1-0.1,0.1-0.1,0.2-0.1c0.2,0,0.6,0.4,0.8,0.6c0,0,0,0,0,0c0.2,0.2,2.5,2.5,3,3c0.2,0.2,0.4,0.1,0.6,0
	c0.1-0.2,0.1-0.4,0-0.5c-1.1-1.1-2.8-2.8-2.9-2.9c0-0.1-0.1-0.2,0-0.2c0-0.1,0-0.1,0.1-0.2c0.2-0.1,0.4-0.1,0.5,0l3.3,3.3l0.1,0.1
	c0.2,0.3,0.6,0.5,1,0.4c0.3-0.1,0.5-0.4,0.5-0.7v-1.3c0-0.2,0.1-0.4,0.3-0.4c0,0,0.1,0,0.1,0c0.1,0,0.3,0,0.3,0.3l0,3.9
	c0,0,0,0,0,0.1c-0.1,0.8,0.2,1.7,0.9,2.2c0.2,0.2,3.4,3.3,5,5c0.2,0.2,0.4,0.2,0.6,0C32.9,34.4,32.9,34.1,32.8,34L32.8,34z M21,30.2
	c0.6,0.6,1.3,1.1,2.2,1.2c0.3,0.1,0.5,0.2,0.7,0.4c-1,1.1-2.3,1.8-3.8,1.9c-2.1,0.1-4-1-5-2.8c1-1.1,1.6-2.4,1.8-3.9
	c0.4,0.2,0.8,0.4,1.2,0.5c0,0,0.1,0,0.1,0c0,0,0.1,0,0.1,0C19.1,28.3,20.5,29.6,21,30.2z M24.8,23.6v1.2l0,0l-3.4-3.4c0,0,0,0,0,0
	c-0.4-0.4-1.1-0.4-1.6-0.1c-0.1,0.1-0.2,0.2-0.3,0.4c-0.2-0.2-0.4-0.2-0.7-0.2c-0.3,0-0.6,0.1-0.7,0.3c-0.4,0.3-0.4,0.9-0.2,1.3
	c-0.1,0.1-0.2,0.1-0.3,0.2c-0.4,0.4-0.4,1.1,0,1.6l0.3,0.3c-0.1,0.1-0.2,0.1-0.2,0.2c-0.3,0.3-0.4,0.7-0.3,1
	c-2.6-1.5-4.1-5.2-4.4-8.4c4-0.2,7.7-2.2,9.9-5.5c1.6,0.9,2.7,2.5,3.2,4.2c0.5,1.9,0.3,3.9-0.4,5.8c0,0,0,0.1,0,0.1
	C25.1,22.6,24.8,23.1,24.8,23.6L24.8,23.6z M27.1,27.6c0-0.1,0-0.1,0-0.2l0-4c0-0.5-0.3-0.9-0.7-1c0.7-1.9,0.9-4.1,0.4-6.1
	c-0.5-2.2-2-4-3.9-5c-0.2-0.1-0.4,0-0.5,0.2c-3.3,5.5-9.8,5.4-9.8,5.4c-0.1,0-0.2,0-0.3,0.1c-0.1,0.1-0.1,0.2-0.1,0.3
	c0.2,3.2,1.5,7,4,9c-0.2,2.2-1.4,4.1-3.2,5.3c0-0.1,0-0.1-0.1-0.2c-2.1-3.2-3.4-6.8-3.8-10.6c-0.5-4.6,1-9.2,4-12.7
	c1.7-2.1,4.3-3.3,7-3.4c2.8,0.1,5.4,1.4,7.1,3.5c3,3.5,4.4,8,3.9,12.6c-0.3,3.1-1.2,6.1-2.6,8.9c-0.4-0.4-0.8-0.7-0.8-0.8
	C27.3,28.7,27.1,28.2,27.1,27.6L27.1,27.6z"/>
<path id="Path_1329" class="st1" d="M19.8,0C8.9,0,0,8.9,0,19.8s8.9,19.8,19.8,19.8s19.8-8.9,19.8-19.8C39.6,8.9,30.7,0,19.8,0z
	 M1.2,19.8C1.2,9.5,9.5,1.2,19.8,1.2c4.8,0,9.3,1.8,12.8,5.1L6.3,32.6C3,29.1,1.2,24.6,1.2,19.8z M19.8,38.4c-4.7,0-9.2-1.8-12.6-5
	L33.4,7.2c7,7.5,6.5,19.3-1,26.3C29,36.6,24.5,38.4,19.8,38.4z"/>
</svg>
