<svg id="i-3-5" xmlns="http://www.w3.org/2000/svg" width="120.096" height="143.512" viewBox="0 0 120.096 143.512">
  <path id="Path_1372" data-name="Path 1372" d="M134.054,15.33H112.889V10.783A6.792,6.792,0,0,0,106.105,4H60a6.792,6.792,0,0,0-6.783,6.783V15.33H32.049A9.065,9.065,0,0,0,23,24.38V138.463a9.06,9.06,0,0,0,9.049,9.049h102a9.06,9.06,0,0,0,9.049-9.049V24.38A9.054,9.054,0,0,0,134.054,15.33ZM57.747,10.783A2.257,2.257,0,0,1,60,8.532h46.108a2.257,2.257,0,0,1,2.251,2.251v9.85a2.257,2.257,0,0,1-2.251,2.251H60a2.257,2.257,0,0,1-2.251-2.251ZM138.571,138.47a4.52,4.52,0,0,1-4.517,4.517h-102a4.52,4.52,0,0,1-4.517-4.517V24.38a4.52,4.52,0,0,1,4.517-4.517H53.215v.77A6.792,6.792,0,0,0,60,27.416h46.108a6.792,6.792,0,0,0,6.783-6.783v-.77h21.165a4.52,4.52,0,0,1,4.517,4.517Z" transform="translate(-23 -4)" fill="#333"/>
  <path id="Path_1373" data-name="Path 1373" d="M80.068,60.7,59.376,82.776,47.686,72.386A2.219,2.219,0,1,0,44.737,75.7l13.3,11.824a2.258,2.258,0,0,0,1.478.554,2.213,2.213,0,0,0,1.618-.7l22.17-23.648a2.217,2.217,0,0,0-3.237-3.03Z" transform="translate(-28.479 -17.471)" fill="#333"/>
  <path id="Path_1374" data-name="Path 1374" d="M62.888,127a15.888,15.888,0,1,0,15.888,15.888A15.9,15.9,0,0,0,62.888,127Zm0,27.343a11.454,11.454,0,1,1,11.454-11.454A11.464,11.464,0,0,1,62.888,154.343Z" transform="translate(-28.726 -32.993)" fill="#333"/>
  <path id="Path_1375" data-name="Path 1375" d="M143.472,69H110.217a2.217,2.217,0,0,0,0,4.434h33.255a2.217,2.217,0,0,0,0-4.434Z" transform="translate(-42.583 -19.867)" fill="#333"/>
  <path id="Path_1376" data-name="Path 1376" d="M143.472,92H110.217a2.217,2.217,0,0,0,0,4.434h33.255a2.217,2.217,0,0,0,0-4.434Z" transform="translate(-42.583 -25.481)" fill="#333"/>
  <path id="Path_1377" data-name="Path 1377" d="M143.472,134H110.217a2.217,2.217,0,0,0,0,4.434h33.255a2.217,2.217,0,1,0,0-4.434Z" transform="translate(-42.583 -35.733)" fill="#333"/>
  <path id="Path_1378" data-name="Path 1378" d="M143.472,157H110.217a2.217,2.217,0,0,0,0,4.434h33.255a2.217,2.217,0,1,0,0-4.434Z" transform="translate(-42.583 -40.824)" fill="#333"/>
</svg>
